<svg version="1.1" id="Layer_1" xmlns="http://www.w3.org/2000/svg" xmlns:xlink="http://www.w3.org/1999/xlink" x="0px" y="0px"
	 width="100%" viewBox="0 0 4975 804" enable-background="new 0 0 4975 804" xml:space="preserve">
<path fill="#FFFFFF" opacity="1.000000" stroke="none" 
	d="
M0.999996,381.000000 
	C1.000000,254.394836 1.000000,127.789673 1.000000,1.000000 
	C140.037537,1.000000 279.075165,1.000000 418.654358,1.341619 
	C420.282257,2.389802 421.316895,3.196419 422.462585,3.787999 
	C441.384460,13.558664 456.477783,27.776819 469.054535,44.681995 
	C478.072144,56.803112 484.953552,70.171318 490.048004,84.618362 
	C489.242126,84.801651 488.749451,84.840195 488.317413,85.022476 
	C464.129883,95.227615 439.914886,105.369171 415.803528,115.751404 
	C412.602539,117.129738 410.824585,117.336922 409.297729,113.808311 
	C407.501526,109.657242 405.548798,105.524902 403.188782,101.675797 
	C395.552277,89.220963 385.878754,78.526459 372.487762,72.359184 
	C359.292664,66.282158 345.194946,64.969780 330.547791,65.765923 
	C313.746613,66.679153 298.699707,71.157112 284.962860,80.921432 
	C272.880249,89.509903 265.037628,109.520271 268.204498,123.720932 
	C271.476959,138.394943 280.150452,148.827042 292.173859,157.031677 
	C307.868286,167.741440 325.340942,174.655991 343.071350,181.069931 
	C365.450958,189.165726 388.136322,196.559509 410.030609,205.815399 
	C434.219604,216.041382 456.140350,230.088318 473.807831,250.157867 
	C483.753204,261.455444 491.403778,273.995941 496.987976,287.838837 
	C504.073395,305.403046 506.600189,323.765961 506.035950,342.641022 
	C505.816101,349.995697 506.000000,357.362396 506.000000,365.431610 
	C511.321686,361.640289 516.790527,357.947754 522.040894,353.967133 
	C541.018738,339.578796 560.132935,325.358002 578.785400,310.556915 
	C592.405273,299.749268 605.494812,288.260437 618.613220,276.836975 
	C633.640198,263.751617 648.438538,250.403763 663.334412,237.167862 
	C669.367249,231.807312 675.388428,226.433716 681.428894,221.081818 
	C683.560486,219.193176 684.335815,217.536728 683.217590,214.266083 
	C677.092590,196.349457 668.779663,179.484238 659.512695,163.057449 
	C647.602234,141.944672 633.397705,122.398819 616.920715,104.691681 
	C606.795349,93.810349 595.488953,84.001846 584.445801,74.006729 
	C567.437805,58.612846 548.158569,46.396282 528.026001,35.634598 
	C502.890350,22.198603 476.378510,12.203048 448.502441,5.958117 
	C441.959747,4.492395 435.498627,2.662407 429.000000,1.000001 
	C1944.611816,1.000000 3460.223633,1.000000 4975.917969,1.000000 
	C4975.917969,268.935455 4975.917969,536.870911 4975.917969,804.903198 
	C3317.666748,804.903198 1659.333374,804.903198 1.000000,804.903198 
	C1.000000,664.878113 1.000000,524.882690 1.336150,384.536316 
	C2.258581,384.774048 3.006269,385.269562 3.407558,385.964966 
	C13.700651,403.801514 25.983654,420.063446 41.884724,433.282928 
	C50.920094,440.794525 59.864147,448.654633 69.828415,454.759796 
	C89.696968,466.933380 111.158073,475.954620 134.000427,480.831146 
	C147.676895,483.750854 161.657120,485.593170 175.597488,486.830200 
	C188.450256,487.970734 201.472610,488.434753 214.345917,487.765869 
	C227.525055,487.080994 240.652435,484.909943 253.728531,482.906677 
	C262.238800,481.602905 270.616913,479.436401 279.209167,477.623688 
	C278.760742,476.623749 278.708801,476.199615 278.481537,476.059082 
	C277.807800,475.642426 277.087494,475.277863 276.345856,474.997681 
	C245.269577,463.257172 218.935043,445.118683 198.152069,418.842926 
	C182.598221,399.178314 171.498245,377.417938 163.821426,353.700714 
	C163.000748,351.165283 162.737869,350.050171 165.611603,348.924469 
	C192.581726,338.360138 219.491623,327.642090 246.638672,316.881348 
	C247.129440,317.847015 247.731293,318.644989 247.960190,319.538513 
	C252.838562,338.582184 261.749817,355.595764 274.241272,370.671387 
	C291.349182,391.318573 314.107941,400.583405 340.304474,400.712219 
	C351.401428,400.766785 362.764191,398.605072 373.556274,395.750122 
	C387.161194,392.151123 399.000336,384.866699 407.424225,373.051849 
	C414.809113,362.694214 416.456635,351.015472 416.132111,338.552521 
	C415.767792,324.558502 410.587494,312.816498 401.258728,302.875916 
	C391.636902,292.623108 379.621429,285.276276 366.971588,279.764374 
	C345.470032,270.395569 323.491150,262.071228 301.479095,253.940811 
	C282.851349,247.060364 264.592560,239.513474 247.759354,228.918015 
	C230.974442,218.352921 215.847397,205.701233 204.316193,189.480713 
	C192.548187,172.927094 183.881027,154.936142 181.857605,134.193024 
	C180.391586,119.163925 180.661179,104.363174 183.722122,89.544670 
	C186.755249,74.860802 193.184860,61.666039 200.781937,48.585773 
	C201.423447,47.415829 201.790802,46.456264 202.517532,44.557987 
	C200.696686,45.762177 199.786926,46.363838 198.561462,47.104477 
	C193.624222,50.240005 188.715836,52.877678 184.434326,56.299660 
	C171.000885,67.036285 157.345825,77.564430 144.630966,89.113884 
	C128.894104,103.408340 115.454987,119.825035 103.118401,137.213654 
	C87.692482,158.956772 75.332870,182.242706 65.519722,206.959061 
	C52.308842,240.233292 45.324532,274.908539 43.176487,310.508972 
	C42.420483,323.038483 43.064320,335.740448 44.145519,348.270813 
	C45.534821,364.371826 47.946167,380.387451 50.049511,396.422516 
	C50.766697,401.890076 50.440681,402.615570 45.251335,401.957092 
	C35.296261,400.693909 26.010649,397.373962 17.533792,391.986816 
	C11.950198,388.438354 6.506392,384.669952 0.999996,381.000000 
M813.252075,291.721710 
	C814.136719,293.117157 815.021301,294.512604 815.905884,295.908081 
	C816.883667,294.413025 818.034424,292.997711 818.774292,291.392944 
	C819.218994,290.428436 819.023315,289.168671 819.727783,287.724152 
	C819.867615,286.262329 819.843628,284.762115 820.175781,283.345367 
	C821.602539,277.260742 823.236755,271.223450 824.588440,265.123047 
	C825.392273,261.494995 825.476501,257.685791 826.493896,254.132629 
	C827.605408,250.251190 829.932007,246.688202 830.825745,242.779846 
	C832.873535,233.824921 833.467834,224.429825 836.456238,215.841110 
	C838.063965,211.220566 839.095459,206.444031 840.800659,201.930130 
	C844.366638,192.490723 845.401184,182.460709 848.612732,172.884033 
	C852.840820,160.275970 854.369507,146.833908 858.780579,134.126404 
	C861.780518,125.484070 863.576660,116.415810 865.766663,107.502518 
	C868.278809,97.277847 870.475769,86.973206 873.140747,76.789940 
	C874.033264,73.379440 873.091431,73.894363 870.276611,74.798744 
	C864.367554,75.266914 858.408813,75.400986 852.559326,76.270111 
	C838.711487,78.327644 824.926086,80.800461 811.095520,82.979179 
	C799.659363,84.780724 788.181519,86.317825 776.746094,88.123901 
	C762.756653,90.333344 748.800354,92.752739 734.814270,94.984261 
	C723.385559,96.807724 711.927673,98.447052 700.494690,100.244247 
	C688.591370,102.115356 676.700256,104.063889 664.808228,106.005920 
	C658.203247,107.084557 651.607361,108.219002 643.843506,109.523911 
	C645.640381,110.647064 646.241882,111.130058 646.923462,111.433189 
	C658.626770,116.638756 670.373352,121.748253 682.043579,127.026772 
	C701.863220,135.991333 721.596436,145.148926 741.489441,153.946136 
	C743.493347,154.832321 746.859436,154.651001 748.720337,153.523788 
	C761.634216,145.701477 774.321289,137.504547 787.072937,129.414856 
	C811.754211,113.756989 836.418884,98.072754 861.150146,82.494370 
	C862.118103,81.884636 863.702637,82.253670 864.708496,82.807625 
	C863.111816,85.398048 861.661011,88.093796 859.885010,90.554840 
	C857.024536,94.518578 853.898071,98.289101 850.974792,102.209015 
	C842.003784,114.238472 833.228516,126.417580 824.078979,138.309036 
	C817.717041,146.577316 810.756104,154.381882 804.259766,162.550293 
	C797.502686,171.046417 790.922302,179.685471 784.385315,188.352982 
	C781.300598,192.442917 780.326843,196.593338 782.292053,201.975891 
	C789.679016,222.208008 796.490845,242.650146 803.516785,263.014069 
	C806.734985,272.341614 809.950073,281.670166 813.252075,291.721710 
M4507.465332,335.037140 
	C4506.977051,340.435486 4506.080566,345.832642 4506.064941,351.232361 
	C4505.946289,392.229645 4505.966797,433.227509 4506.043945,474.224976 
	C4506.053223,479.151245 4506.393066,484.111969 4507.040039,488.995728 
	C4509.627441,508.510681 4520.754395,521.113159 4538.896484,528.063721 
	C4552.548828,533.294006 4566.641113,529.970215 4581.000000,531.160706 
	C4581.000000,528.780212 4581.000000,526.994019 4581.000000,525.207825 
	C4581.000000,467.044525 4580.941406,408.881073 4581.087891,350.718140 
	C4581.103027,344.702454 4581.598145,338.492737 4583.139648,332.711304 
	C4588.698730,311.855377 4600.141602,296.622467 4623.064453,292.892151 
	C4640.029297,290.131470 4654.904785,294.467590 4667.390137,306.018646 
	C4680.680664,318.314911 4684.492188,334.902740 4684.818848,351.929657 
	C4685.686035,397.178497 4685.276367,442.452271 4686.190918,487.699615 
	C4686.559570,505.936432 4698.551758,521.469727 4716.869629,528.086365 
	C4726.125488,531.429688 4735.638672,530.987000 4745.166504,530.998962 
	C4750.083008,531.005127 4754.999512,531.000000 4760.000000,531.000000 
	C4760.000000,528.373596 4760.000000,526.542358 4760.000000,524.711121 
	C4760.000000,468.714355 4759.865723,412.716949 4760.135254,356.721436 
	C4760.179199,347.608704 4761.311035,338.357239 4763.180176,329.429291 
	C4766.366211,314.206146 4775.070312,302.735504 4789.499512,296.225555 
	C4800.651855,291.194031 4812.335449,290.673828 4824.062988,293.625092 
	C4831.485352,295.492920 4838.401855,298.480957 4844.374512,303.740417 
	C4858.811035,316.451935 4863.451172,333.372070 4863.809082,351.317596 
	C4864.716797,396.898682 4864.439453,442.502441 4865.150879,488.089111 
	C4865.342285,500.335571 4870.237793,511.366180 4879.445801,519.823120 
	C4887.034668,526.793457 4896.697754,529.842590 4906.625000,530.609924 
	C4917.633301,531.460693 4928.758301,530.804504 4940.000000,530.804504 
	C4940.000000,528.446960 4940.000000,526.622742 4940.000000,524.798523 
	C4940.000000,464.468689 4940.024902,404.138824 4939.956055,343.809052 
	C4939.950195,338.712860 4939.675781,333.562866 4938.910156,328.531586 
	C4936.423828,312.185455 4931.655273,296.555328 4923.545410,282.033661 
	C4914.409668,265.675415 4902.069824,252.245087 4885.767578,243.068619 
	C4858.100098,227.494659 4828.269043,221.905670 4796.908691,227.115280 
	C4770.556152,231.492996 4748.965332,244.362396 4733.196777,266.307587 
	C4730.231445,270.434021 4729.611328,270.348633 4726.096680,266.659729 
	C4720.654297,260.946960 4715.268555,255.121689 4709.334961,249.944702 
	C4689.923828,233.008636 4666.709961,225.657547 4641.409180,225.203827 
	C4629.979492,224.998871 4618.490234,226.813065 4607.062988,228.033554 
	C4588.902344,229.973236 4572.136230,236.530914 4557.241211,246.621094 
	C4539.729004,258.484467 4526.317871,274.325012 4518.271484,294.286499 
	C4513.078125,307.171448 4509.040039,320.321289 4507.465332,335.037140 
M312.524933,652.000183 
	C324.658203,653.666504 336.748383,655.894836 348.937744,656.829468 
	C359.565338,657.644287 370.322021,657.382935 380.990448,656.903198 
	C394.124359,656.312622 407.350189,655.804993 420.309357,653.796875 
	C435.838837,651.390503 451.316895,648.129150 466.480591,644.001465 
	C492.445648,636.933594 516.973328,626.195923 540.142517,612.418030 
	C560.416260,600.362061 579.491699,586.638733 596.765137,570.599854 
	C611.893066,556.553162 625.639099,541.214417 638.024963,524.608032 
	C658.233093,497.513885 673.790710,468.020020 684.986755,436.204590 
	C691.631958,417.321014 696.771118,398.023010 699.028137,378.070435 
	C700.483093,365.208954 702.599792,352.331299 702.775696,339.438477 
	C703.012329,322.096008 701.902405,304.717896 700.877686,287.384186 
	C700.473816,280.552277 698.742310,273.798889 697.516846,266.416077 
	C696.252319,267.456299 695.506287,267.867188 695.036011,268.487274 
	C688.332642,277.324738 681.764954,286.266724 674.966248,295.029694 
	C666.848999,305.492096 658.724670,315.958923 650.269226,326.146545 
	C640.302673,338.154968 630.116089,349.988342 619.775757,361.677246 
	C605.138672,378.223267 590.969604,395.266052 575.343506,410.834900 
	C551.768372,434.323547 527.311096,456.943451 502.819611,479.488190 
	C491.374451,490.023621 479.287933,499.931366 466.935974,509.398041 
	C442.121246,528.416321 416.356812,546.123779 388.789276,560.951721 
	C362.129028,575.291626 334.703827,587.924683 305.174957,595.443665 
	C288.381927,599.719727 271.483948,603.283325 254.126022,603.941284 
	C245.280609,604.276611 236.366409,604.566345 227.565323,603.857849 
	C216.353287,602.955200 205.214310,601.090759 194.065598,599.489319 
	C190.755341,599.013855 187.518417,598.027954 183.880432,597.191345 
	C184.231720,598.149902 184.249527,598.574585 184.459198,598.717163 
	C208.771210,615.257812 234.568863,629.075745 262.406586,638.523621 
	C278.491760,643.982788 295.214325,647.563904 312.524933,652.000183 
M1246.001099,437.499786 
	C1247.564697,425.921539 1248.335571,414.443207 1247.227417,402.637909 
	C1245.347168,382.612610 1237.414307,365.548431 1224.250977,350.950806 
	C1212.594238,338.023987 1197.970703,328.729858 1181.561890,323.208130 
	C1165.022217,317.642365 1148.045654,313.264526 1131.078125,309.111511 
	C1112.461792,304.555023 1093.990601,299.790253 1076.828857,290.976074 
	C1068.104248,286.495209 1060.536377,280.437164 1058.183105,270.679688 
	C1053.333130,250.569687 1061.725708,233.231400 1079.810181,223.094803 
	C1092.607666,215.921753 1106.993652,214.019836 1121.251709,213.191879 
	C1139.523193,212.130844 1157.917725,212.509201 1175.808350,217.111862 
	C1194.917114,222.027985 1212.719238,229.718964 1227.261108,243.676590 
	C1229.936890,246.244843 1233.150635,248.252716 1236.998779,251.194046 
	C1236.998779,235.638504 1237.604126,221.615280 1236.798340,207.673615 
	C1236.203247,197.376038 1232.466187,187.520020 1225.809570,179.475967 
	C1211.945068,162.722000 1192.976196,154.542694 1172.348022,150.162262 
	C1161.682129,147.897354 1150.615479,147.592270 1139.802734,145.928467 
	C1124.081055,143.509293 1108.432007,145.112549 1092.976074,147.265182 
	C1074.876099,149.786057 1057.713745,156.027023 1041.758667,165.082382 
	C1024.373779,174.949265 1009.701294,188.049133 999.120178,205.014084 
	C983.702393,229.734024 976.858765,256.473083 981.894470,285.805847 
	C984.681946,302.042542 991.154907,316.293762 1002.606995,328.003021 
	C1020.697693,346.499939 1043.522827,356.467224 1068.079346,362.984680 
	C1092.797974,369.545227 1118.236328,373.457367 1142.142334,382.996643 
	C1151.269043,386.638550 1160.070190,390.857269 1165.878784,399.375122 
	C1170.436890,406.059204 1171.033203,413.562836 1171.072632,421.389832 
	C1171.172974,441.363953 1159.020752,457.970367 1139.938721,464.031921 
	C1129.768188,467.262726 1119.238892,468.089996 1108.670776,469.308289 
	C1095.165771,470.865173 1081.933472,469.531464 1068.831299,467.672058 
	C1052.044312,465.289642 1036.184692,459.206726 1021.732422,450.182770 
	C1012.781799,444.593964 1004.348145,438.179565 995.648987,432.184143 
	C993.751831,430.876617 991.712769,429.775055 989.000000,428.130707 
	C989.000000,442.120483 988.366760,454.978027 989.234741,467.733429 
	C989.765259,475.529572 991.378174,483.734711 994.631592,490.773163 
	C1004.717163,512.592163 1023.445190,524.565674 1045.740723,530.772827 
	C1058.522583,534.331299 1071.867310,537.120178 1085.061890,537.640625 
	C1103.358765,538.362427 1121.898560,537.800659 1140.055298,535.543274 
	C1152.887329,533.947998 1165.651489,529.611633 1177.740112,524.745239 
	C1196.136719,517.339478 1211.841797,505.857697 1224.132446,489.810852 
	C1235.895386,474.452972 1242.786621,457.263977 1246.001099,437.499786 
M4390.352051,510.940826 
	C4396.328125,505.367218 4402.556152,500.036713 4408.227051,494.168335 
	C4419.336426,482.672333 4427.387207,469.157837 4433.890137,454.573822 
	C4443.108887,433.901276 4447.381348,412.071747 4448.827148,389.749207 
	C4449.913574,372.984009 4448.686523,356.250244 4445.147949,339.635254 
	C4437.810059,305.188904 4421.790039,275.962494 4394.178711,253.857254 
	C4369.756348,234.305130 4341.162598,225.574554 4310.156250,225.181381 
	C4299.224121,225.042755 4288.206543,226.570862 4277.329590,228.074387 
	C4252.341309,231.528564 4230.362793,242.211823 4211.330566,258.400299 
	C4195.557617,271.815826 4183.581055,288.343414 4175.091309,307.432068 
	C4164.226562,331.861176 4159.882812,357.626556 4159.211426,384.017517 
	C4158.933594,394.932098 4160.768555,405.932617 4162.045898,416.846802 
	C4163.778320,431.643341 4168.308105,445.719727 4174.657715,459.126526 
	C4186.271973,483.650116 4203.205566,503.491852 4226.399902,518.047180 
	C4245.042969,529.746277 4265.321289,536.336609 4286.996094,537.799438 
	C4306.225586,539.097351 4325.512207,538.204956 4344.343262,533.018311 
	C4360.811035,528.482422 4376.028809,521.456909 4390.352051,510.940826 
M1843.655029,511.945129 
	C1844.817627,512.832458 1845.909180,513.836853 1847.153198,514.589722 
	C1868.432617,527.468018 1891.429932,534.923462 1916.336060,535.938538 
	C1925.653564,536.318298 1935.005371,535.788452 1944.331177,536.047180 
	C1960.248901,536.488708 1975.505737,533.624023 1990.379028,528.046143 
	C2008.626343,521.202942 2023.974121,510.301544 2035.547974,494.724640 
	C2049.257568,476.273224 2055.874268,455.177673 2055.972168,432.172760 
	C2056.089355,404.674194 2056.148193,377.173462 2055.906006,349.676544 
	C2055.836914,341.816071 2055.182373,333.870972 2053.841064,326.130188 
	C2051.057617,310.067841 2046.113037,294.710724 2038.141724,280.301880 
	C2029.174561,264.093292 2016.774902,251.487061 2000.783813,242.377777 
	C1977.895264,229.339523 1952.561646,226.900650 1926.988647,226.136139 
	C1919.659546,225.917023 1912.290894,227.464401 1904.924438,227.966949 
	C1886.705078,229.209885 1869.853760,234.955551 1854.246094,244.075851 
	C1843.192139,250.535324 1834.426392,259.594208 1827.994019,270.842865 
	C1818.396973,287.625519 1821.427246,305.868469 1821.026367,325.011627 
	C1823.401367,323.725189 1825.053101,323.158661 1826.276367,322.098022 
	C1828.662354,320.029419 1830.611694,317.433472 1833.084961,315.493256 
	C1854.212891,298.919647 1878.956665,291.968323 1905.117188,290.260010 
	C1917.868652,289.427338 1930.853638,290.818787 1943.630005,292.173645 
	C1952.910645,293.157806 1961.757324,296.665253 1968.640625,303.270264 
	C1981.094604,315.220490 1981.986694,330.816803 1982.002075,348.000000 
	C1967.633423,348.000000 1953.876953,347.606598 1940.153687,348.115387 
	C1927.519531,348.583832 1914.734375,348.995453 1902.347534,351.253113 
	C1878.604858,355.580505 1855.505981,362.066467 1836.206543,377.903076 
	C1826.226562,386.092529 1818.542603,395.769745 1813.968750,407.866943 
	C1808.294189,422.874786 1806.684937,438.239197 1808.890381,454.196350 
	C1810.546143,466.175598 1814.376099,477.127960 1820.701294,487.402557 
	C1826.586914,496.963287 1834.533325,504.479828 1843.655029,511.945129 
M3539.854004,349.064026 
	C3539.092529,349.366608 3538.345459,349.888763 3537.567383,349.939484 
	C3519.714355,351.103973 3502.594971,355.585388 3486.074707,362.130127 
	C3471.280029,367.991058 3457.645264,376.245178 3447.813721,388.930878 
	C3430.494629,411.277649 3427.027100,437.147278 3433.625244,463.803009 
	C3441.486084,495.561768 3463.906738,514.590332 3493.477051,526.143738 
	C3512.318604,533.505249 3531.821533,536.709290 3552.065674,536.067444 
	C3567.212646,535.587280 3582.391113,536.743652 3597.385498,533.074768 
	C3615.222900,528.710144 3631.541016,521.315308 3645.229248,509.112854 
	C3666.244873,490.378082 3677.748779,466.249023 3678.671631,438.459717 
	C3679.741943,406.250305 3678.401611,373.957703 3677.976318,341.702972 
	C3677.759277,325.231201 3674.185547,309.360382 3667.909180,294.199646 
	C3660.602783,276.550781 3650.349365,260.818329 3634.710449,249.384277 
	C3614.200195,234.388992 3590.642090,228.195099 3565.614258,227.069443 
	C3556.111816,226.642059 3546.572510,226.891830 3537.053223,227.046707 
	C3532.456055,227.121506 3527.818604,227.382523 3523.282959,228.092316 
	C3507.442383,230.571167 3492.184326,235.154297 3478.377197,243.374100 
	C3464.276123,251.769104 3453.416504,263.205475 3447.407471,278.967865 
	C3441.821045,293.621948 3444.976562,308.694641 3443.763428,325.143646 
	C3446.603027,323.461731 3448.455811,322.536224 3450.121338,321.348694 
	C3458.198975,315.589478 3465.740723,308.873230 3474.375244,304.145233 
	C3490.860596,295.118347 3509.182617,291.423706 3527.730469,290.204529 
	C3542.161621,289.255920 3556.686768,289.541931 3571.037842,292.912872 
	C3599.177979,299.522858 3606.616699,322.434906 3604.339600,346.357880 
	C3583.109619,347.243103 3561.942383,348.125702 3539.854004,349.064026 
M2751.395508,364.934357 
	C2738.493164,370.158936 2727.273682,378.129089 2718.846436,388.946106 
	C2701.469482,411.249908 2698.026367,437.144379 2704.625488,463.804199 
	C2712.488281,495.568146 2734.921875,514.580688 2764.485352,526.155457 
	C2783.494629,533.598022 2803.177979,536.745850 2823.585449,536.059143 
	C2838.398682,535.560669 2853.212891,536.642517 2867.922363,533.134094 
	C2885.823975,528.864197 2902.166260,521.535950 2915.888184,509.429352 
	C2937.127197,490.690643 2948.754150,466.411896 2949.675049,438.417450 
	C2950.735107,406.203278 2949.434082,373.906769 2948.962402,341.648865 
	C2948.724365,325.359161 2945.179199,309.685303 2939.006104,294.611755 
	C2931.682373,276.728455 2921.404053,260.888123 2905.646484,249.357285 
	C2884.998291,234.247437 2861.261475,228.071106 2836.038330,227.060455 
	C2826.697266,226.686188 2817.326660,226.890259 2807.973145,227.046875 
	C2803.375488,227.123856 2798.737549,227.386948 2794.201172,228.097076 
	C2778.525146,230.551025 2763.409180,235.089630 2749.730225,243.163956 
	C2735.617920,251.494003 2724.735352,262.841309 2718.591797,278.616425 
	C2712.810547,293.461121 2716.071289,308.644287 2714.755371,325.046234 
	C2717.343506,323.667358 2719.116699,323.066101 2720.445068,321.940216 
	C2722.851318,319.900391 2724.801025,317.303650 2727.274658,315.364380 
	C2748.270020,298.904114 2772.874512,292.017334 2798.846191,290.268158 
	C2811.758301,289.398529 2824.922852,290.765259 2837.854004,292.195831 
	C2847.099609,293.218689 2855.949219,296.753418 2862.811523,303.418427 
	C2875.059326,315.313629 2875.965332,330.786316 2876.049316,347.999817 
	C2863.190674,347.999817 2850.792236,347.610718 2838.429688,348.107361 
	C2825.629639,348.621582 2812.836182,349.725586 2800.090820,351.059265 
	C2783.346191,352.811432 2767.322266,357.429810 2751.395508,364.934357 
M1307.000000,326.500000 
	C1307.000000,349.994171 1306.678589,373.494598 1307.134033,396.979950 
	C1307.365845,408.937775 1308.246704,420.988403 1310.137695,432.788177 
	C1315.026855,463.297363 1328.859863,489.044159 1352.662231,509.221771 
	C1373.853394,527.185913 1398.903564,535.623840 1425.956543,537.733704 
	C1442.500610,539.023987 1459.213013,538.450134 1475.778076,535.141663 
	C1501.080078,530.088135 1523.324829,520.151489 1540.518311,500.118469 
	C1552.143555,486.573273 1559.276855,470.935486 1563.951538,454.026245 
	C1569.634888,433.468567 1570.846069,412.331909 1570.952759,391.147247 
	C1571.127563,356.490479 1571.097168,321.831665 1570.909546,287.175018 
	C1570.876099,280.992828 1570.104980,274.729401 1568.904175,268.655731 
	C1566.002319,253.976959 1557.857178,243.138672 1543.801392,237.403610 
	C1528.163818,231.023087 1511.736084,231.649139 1495.000000,232.223053 
	C1495.000000,234.374680 1495.000000,236.178360 1495.000000,237.982040 
	C1495.000000,291.301514 1495.236572,344.622833 1494.817261,397.939026 
	C1494.723999,409.805603 1493.318848,421.876373 1490.733887,433.454895 
	C1487.457886,448.129272 1479.177856,459.855621 1464.975464,466.552582 
	C1452.835327,472.277039 1440.305054,472.399475 1427.618408,469.164673 
	C1416.394653,466.302856 1406.746094,460.358459 1399.356689,451.574829 
	C1387.907959,437.965790 1384.447266,421.242645 1384.143799,404.132050 
	C1383.376831,360.891388 1383.775269,317.627625 1382.766724,274.395020 
	C1382.400024,258.674561 1374.412354,245.876175 1359.687500,239.196945 
	C1352.314941,235.852722 1343.937012,234.208694 1335.835815,233.121246 
	C1326.431274,231.858841 1316.831543,232.050232 1307.000000,231.595978 
	C1307.000000,263.568054 1307.000000,294.534027 1307.000000,326.500000 
M2657.498047,222.001450 
	C2660.336670,215.971603 2663.431641,210.046539 2665.949707,203.885773 
	C2669.205811,195.918579 2672.670410,187.913635 2671.992920,178.970352 
	C2670.795410,163.158035 2661.189209,152.559021 2644.879639,152.064728 
	C2633.723389,151.726624 2622.542725,152.209442 2611.385742,151.883270 
	C2607.619385,151.773178 2606.154053,153.259079 2605.180176,156.453262 
	C2596.091553,186.258514 2583.090088,214.422913 2567.719727,241.386032 
	C2555.258789,263.245697 2541.300293,284.249908 2528.112793,305.699280 
	C2526.174805,308.851624 2525.050293,308.925537 2522.916260,305.830078 
	C2508.040527,284.254456 2494.729248,261.752563 2482.830078,238.419418 
	C2475.072754,223.208908 2467.434082,207.934830 2459.977051,192.575333 
	C2454.820557,181.954941 2451.297363,170.620911 2440.884033,163.098740 
	C2432.118652,156.767242 2422.790771,152.556656 2412.210938,152.140106 
	C2397.900146,151.576660 2383.550293,151.992508 2369.217285,152.016357 
	C2368.179688,152.018097 2367.142334,152.248856 2365.868164,152.401474 
	C2366.708252,154.352234 2367.361816,155.824936 2367.980225,157.312271 
	C2378.241943,181.992218 2387.502686,207.151337 2399.030518,231.224808 
	C2411.232422,256.705688 2424.984131,281.506927 2439.204834,305.938049 
	C2449.976562,324.444397 2462.204590,342.143280 2474.482910,359.713409 
	C2479.577393,367.003448 2482.370850,373.960144 2482.218018,383.112946 
	C2481.664062,416.269714 2481.968262,449.441376 2482.043457,482.607239 
	C2482.051758,486.362061 2482.273438,490.198761 2483.058105,493.855469 
	C2486.702881,510.842712 2496.205322,523.376953 2512.913086,528.875916 
	C2528.158936,533.893677 2544.068359,529.745605 2560.000000,531.230896 
	C2560.000000,528.644714 2560.000000,526.842773 2560.000000,525.040894 
	C2560.000000,475.041901 2559.952148,425.042725 2560.126221,375.044342 
	C2560.135986,372.218536 2561.375977,368.973083 2563.048340,366.644501 
	C2575.586426,349.187134 2588.698486,332.135284 2600.991455,314.510559 
	C2611.584717,299.322968 2621.708740,283.775177 2631.349854,267.965607 
	C2640.390869,253.139587 2648.526855,237.761765 2657.498047,222.001450 
M2237.936035,410.385925 
	C2233.534424,420.015320 2229.132812,429.644714 2224.731201,439.274139 
	C2224.223877,439.260559 2223.716553,439.246979 2223.209229,439.233398 
	C2217.140869,426.003448 2210.302734,413.063629 2205.182129,399.476593 
	C2197.196777,378.289520 2189.496338,356.913605 2183.311523,335.152649 
	C2177.156494,313.497711 2172.646729,291.345856 2168.110352,269.269073 
	C2164.187744,250.177399 2147.916016,231.321854 2124.877197,231.938354 
	C2112.053955,232.281509 2099.213623,231.992126 2086.381104,232.011124 
	C2084.957520,232.013229 2083.533936,232.168564 2081.850342,232.268204 
	C2082.304932,234.121643 2082.785156,235.508286 2082.972412,236.933441 
	C2084.354980,247.461411 2084.839111,258.189636 2087.199951,268.489594 
	C2091.901611,289.004181 2096.989746,309.475769 2103.052490,329.623840 
	C2117.759521,378.499451 2136.770752,425.699799 2161.054443,470.641144 
	C2169.144775,485.613800 2177.716309,500.441650 2187.448486,514.371155 
	C2193.879395,523.575500 2202.591064,531.487000 2214.778564,532.965393 
	C2223.080566,533.972473 2231.453125,534.632568 2239.808105,534.814026 
	C2242.137939,534.864563 2245.560303,533.294312 2246.713867,531.394287 
	C2260.357422,508.919098 2274.291748,486.580841 2286.852295,463.500610 
	C2295.914551,446.848694 2303.571533,429.363434 2310.882568,411.843994 
	C2320.420410,388.988281 2329.644287,365.956543 2337.773438,342.573151 
	C2343.822266,325.173462 2348.403076,307.211243 2352.705566,289.275970 
	C2355.359131,278.214355 2357.433350,266.927185 2355.127441,255.231140 
	C2352.748535,243.163940 2345.073975,234.086075 2333.133301,233.167252 
	C2319.270020,232.100464 2305.307129,232.258972 2291.385254,232.145004 
	C2290.266846,232.135849 2288.395020,233.977890 2288.125977,235.229050 
	C2286.554688,242.536865 2285.310303,249.917023 2284.040771,257.287415 
	C2278.771973,287.868805 2271.010742,317.852814 2261.181152,347.235992 
	C2254.150146,368.253448 2245.817139,388.835327 2237.936035,410.385925 
M4032.223877,467.009460 
	C4028.300781,466.672821 4024.331299,466.609131 4020.462891,465.950745 
	C4006.335449,463.546234 3993.830078,457.811066 3983.291748,447.852631 
	C3971.164551,436.392548 3963.480713,422.313385 3959.330078,406.438416 
	C3955.518799,391.860321 3953.767334,376.660095 3957.277832,361.967957 
	C3964.114258,333.359680 3981.635010,313.298126 4009.504395,303.082336 
	C4022.244141,298.412445 4035.384521,297.256866 4049.101807,298.725861 
	C4060.364990,299.932068 4071.475830,301.124390 4082.138916,304.993500 
	C4094.824951,309.596436 4106.912109,315.142151 4115.220215,326.580261 
	C4116.255859,328.005829 4118.494629,328.557617 4119.974121,329.399353 
	C4119.974121,313.591583 4121.539551,298.311798 4119.571289,283.501770 
	C4117.202637,265.680603 4105.845215,252.609314 4090.744385,242.939453 
	C4076.937256,234.097717 4061.514648,229.708389 4045.502686,229.302826 
	C4030.930908,228.933731 4016.106934,229.987534 4001.735840,232.427521 
	C3984.612061,235.334961 3968.337402,241.486282 3953.095947,250.306213 
	C3933.774170,261.487579 3917.624756,275.853424 3904.916504,294.243896 
	C3885.806152,321.898743 3878.143311,353.036316 3877.197998,386.026459 
	C3876.914307,395.936737 3878.468750,406.001495 3880.091797,415.845337 
	C3884.709473,443.850739 3898.204834,467.543701 3916.974121,488.380463 
	C3926.808594,499.298187 3938.411621,508.110992 3951.061523,515.650818 
	C3973.239014,528.869568 3997.341797,535.483948 4022.916016,536.884949 
	C4030.469727,537.298706 4038.101074,536.372498 4045.693359,535.993652 
	C4064.155518,535.072571 4081.209473,529.892761 4096.275879,518.938232 
	C4107.338379,510.894867 4116.443848,500.730164 4117.733398,486.922760 
	C4119.173828,471.497803 4118.063965,455.834747 4118.063965,439.905792 
	C4117.154785,440.196381 4115.348145,440.205322 4114.597168,441.100037 
	C4105.436035,452.010406 4093.103027,457.557678 4080.067383,462.063110 
	C4066.066895,466.901917 4051.410156,466.742249 4036.932129,467.944489 
	C4035.703857,468.046539 4034.411377,467.379364 4032.223877,467.009460 
M3187.996826,267.993591 
	C3187.996826,256.068054 3187.996826,244.142548 3187.996826,231.743591 
	C3153.272705,231.743591 3119.209473,231.743591 3084.844482,231.743591 
	C3084.844482,208.981766 3084.844482,186.704285 3084.844482,164.004120 
	C3078.420898,164.004120 3072.237793,163.485153 3066.190186,164.167038 
	C3061.283691,164.720276 3056.015381,165.809433 3051.817871,168.235764 
	C3037.142334,176.718658 3026.429443,189.310852 3018.085693,203.866119 
	C3012.106934,214.295624 3010.161621,226.017242 3010.111572,237.772293 
	C3009.865967,295.603149 3009.957031,353.435669 3010.044678,411.267456 
	C3010.058594,420.363037 3010.047607,429.533905 3011.157471,438.533173 
	C3012.485840,449.303741 3014.066650,460.212006 3017.201660,470.556427 
	C3024.104004,493.331207 3037.946533,510.941620 3059.383545,522.057922 
	C3077.320557,531.359497 3096.862549,534.329712 3116.599854,534.709595 
	C3128.761963,534.943665 3141.251709,533.492065 3153.103760,530.708557 
	C3168.428955,527.109253 3179.937744,517.811401 3185.420654,502.199036 
	C3190.484863,487.777832 3186.650879,472.996368 3188.316895,457.647339 
	C3185.867676,458.167053 3184.093994,458.239410 3182.585693,458.909241 
	C3162.213623,467.957489 3140.844971,469.831085 3119.096191,466.846985 
	C3106.323730,465.094513 3096.350830,458.396271 3090.618896,446.228729 
	C3086.936279,438.411346 3085.113770,430.149231 3085.076172,421.656799 
	C3084.902832,382.658539 3085.000000,343.659058 3085.000000,304.660034 
	C3085.000000,302.885559 3085.000000,301.111084 3085.000000,299.000000 
	C3087.173828,299.000000 3088.811523,299.000000 3090.449219,299.000000 
	C3108.781982,299.000000 3127.121338,299.288025 3145.445068,298.877930 
	C3154.543701,298.674316 3163.614258,297.107941 3171.519043,291.942963 
	C3179.981934,286.412964 3184.586182,278.067383 3187.996826,267.993591 
M1644.000000,168.500000 
	C1644.000000,258.626740 1643.852905,348.753998 1644.177612,438.879578 
	C1644.220459,450.738281 1645.442505,462.892242 1648.276611,474.376831 
	C1653.596558,495.933502 1665.590332,512.969666 1686.238525,523.122803 
	C1697.654297,528.736145 1709.526001,531.850220 1722.146729,533.120544 
	C1735.019775,534.416321 1747.808960,534.936096 1760.437378,531.920959 
	C1773.982300,528.687256 1784.054810,521.200623 1787.465942,506.952179 
	C1788.486816,502.687531 1788.703979,498.207581 1789.041382,493.807281 
	C1789.590576,486.641083 1789.935425,479.459259 1790.443848,470.999512 
	C1776.130981,470.999512 1762.841187,471.763977 1749.687378,470.755402 
	C1739.336914,469.961792 1729.604614,466.144745 1724.038452,456.122131 
	C1719.954346,448.768372 1719.107178,440.548248 1719.092773,432.448547 
	C1718.942139,347.653046 1719.010620,262.857208 1718.957886,178.061478 
	C1718.955933,174.978104 1718.657959,171.817108 1717.942749,168.825027 
	C1714.255005,153.396774 1706.356323,141.241409 1690.563599,136.032547 
	C1685.536133,134.374390 1680.136841,133.302444 1674.857910,133.063690 
	C1664.692749,132.603973 1654.491821,132.929703 1644.000000,132.929703 
	C1644.000000,144.229691 1644.000000,155.864853 1644.000000,168.500000 
M3231.000000,374.500000 
	C3231.333496,413.589417 3231.562012,452.680206 3232.078125,491.767212 
	C3232.198730,500.873138 3236.065430,508.979706 3242.193115,515.523865 
	C3251.930664,525.923096 3264.473389,530.585938 3278.567139,530.953369 
	C3287.981934,531.198792 3297.408447,531.000000 3307.000000,531.000000 
	C3307.000000,528.471252 3307.000000,526.649719 3307.000000,524.828125 
	C3307.000000,469.834198 3306.863525,414.839630 3307.135010,359.847046 
	C3307.179932,350.738831 3308.310059,341.495636 3310.148682,332.563965 
	C3314.903809,309.463074 3331.444824,297.919800 3354.536133,296.894379 
	C3369.736572,296.219360 3384.146484,299.117645 3398.335693,304.048950 
	C3400.035889,304.639771 3401.890869,304.785492 3404.000000,305.201965 
	C3404.000000,294.680969 3404.239258,285.022583 3403.947021,275.380310 
	C3403.439209,258.624329 3395.404053,246.139740 3380.954834,238.066666 
	C3364.753174,229.014404 3347.249512,228.110687 3329.054443,229.791748 
	C3312.377686,231.332581 3296.893799,235.364792 3282.347412,243.823669 
	C3266.753418,252.891617 3254.621338,265.154388 3246.089600,280.861511 
	C3235.254150,300.809601 3232.174072,322.743896 3231.077881,345.006989 
	C3230.611328,354.482971 3231.000000,364.001038 3231.000000,374.500000 
M3740.050537,454.701904 
	C3731.716309,465.659821 3728.772217,478.501465 3731.289062,491.443512 
	C3736.563721,518.565918 3758.628418,535.133362 3787.757568,530.689392 
	C3809.869629,527.316040 3826.680420,506.612122 3826.893799,484.217499 
	C3827.049805,467.853455 3820.068115,454.357635 3806.974121,444.669006 
	C3795.160889,435.927826 3781.780029,433.617188 3767.203125,436.798828 
	C3755.927734,439.259888 3747.855713,446.007294 3740.050537,454.701904 
z"/>
<path fill="#0071BA" opacity="1.000000" stroke="none" 
	d="
M0.999996,381.375000 
	C6.506392,384.669952 11.950198,388.438354 17.533792,391.986816 
	C26.010649,397.373962 35.296261,400.693909 45.251335,401.957092 
	C50.440681,402.615570 50.766697,401.890076 50.049511,396.422516 
	C47.946167,380.387451 45.534821,364.371826 44.145519,348.270813 
	C43.064320,335.740448 42.420483,323.038483 43.176487,310.508972 
	C45.324532,274.908539 52.308842,240.233292 65.519722,206.959061 
	C75.332870,182.242706 87.692482,158.956772 103.118401,137.213654 
	C115.454987,119.825035 128.894104,103.408340 144.630966,89.113884 
	C157.345825,77.564430 171.000885,67.036285 184.434326,56.299660 
	C188.715836,52.877678 193.624222,50.240005 198.901230,47.340214 
	C199.873718,47.890034 200.190750,48.343094 200.507782,48.796158 
	C193.184860,61.666039 186.755249,74.860802 183.722122,89.544670 
	C180.661179,104.363174 180.391586,119.163925 181.857605,134.193024 
	C183.881027,154.936142 192.548187,172.927094 204.316193,189.480713 
	C215.847397,205.701233 230.974442,218.352921 247.759354,228.918015 
	C264.592560,239.513474 282.851349,247.060364 301.479095,253.940811 
	C323.491150,262.071228 345.470032,270.395569 366.971588,279.764374 
	C379.621429,285.276276 391.636902,292.623108 401.258728,302.875916 
	C410.587494,312.816498 415.767792,324.558502 416.132111,338.552521 
	C416.456635,351.015472 414.809113,362.694214 407.424225,373.051849 
	C399.000336,384.866699 387.161194,392.151123 373.556274,395.750122 
	C362.764191,398.605072 351.401428,400.766785 340.304474,400.712219 
	C314.107941,400.583405 291.349182,391.318573 274.241272,370.671387 
	C261.749817,355.595764 252.838562,338.582184 247.960190,319.538513 
	C247.731293,318.644989 247.129440,317.847015 246.638672,316.881348 
	C219.491623,327.642090 192.581726,338.360138 165.611603,348.924469 
	C162.737869,350.050171 163.000748,351.165283 163.821426,353.700714 
	C171.498245,377.417938 182.598221,399.178314 198.152069,418.842926 
	C218.935043,445.118683 245.269577,463.257172 276.345856,474.997681 
	C277.087494,475.277863 277.807800,475.642426 278.481537,476.059082 
	C278.708801,476.199615 278.760742,476.623749 279.209167,477.623688 
	C270.616913,479.436401 262.238800,481.602905 253.728531,482.906677 
	C240.652435,484.909943 227.525055,487.080994 214.345917,487.765869 
	C201.472610,488.434753 188.450256,487.970734 175.597488,486.830200 
	C161.657120,485.593170 147.676895,483.750854 134.000427,480.831146 
	C111.158073,475.954620 89.696968,466.933380 69.828415,454.759796 
	C59.864147,448.654633 50.920094,440.794525 41.884724,433.282928 
	C25.983654,420.063446 13.700651,403.801514 3.407558,385.964966 
	C3.006269,385.269562 2.258581,384.774048 1.336150,384.092712 
	C1.000000,383.250000 1.000000,382.500000 0.999996,381.375000 
z"/>
<path fill="#0071BA" opacity="1.000000" stroke="none" 
	d="
M428.545898,1.000001 
	C435.498627,2.662407 441.959747,4.492395 448.502441,5.958117 
	C476.378510,12.203048 502.890350,22.198603 528.026001,35.634598 
	C548.158569,46.396282 567.437805,58.612846 584.445801,74.006729 
	C595.488953,84.001846 606.795349,93.810349 616.920715,104.691681 
	C633.397705,122.398819 647.602234,141.944672 659.512695,163.057449 
	C668.779663,179.484238 677.092590,196.349457 683.217590,214.266083 
	C684.335815,217.536728 683.560486,219.193176 681.428894,221.081818 
	C675.388428,226.433716 669.367249,231.807312 663.334412,237.167862 
	C648.438538,250.403763 633.640198,263.751617 618.613220,276.836975 
	C605.494812,288.260437 592.405273,299.749268 578.785400,310.556915 
	C560.132935,325.358002 541.018738,339.578796 522.040894,353.967133 
	C516.790527,357.947754 511.321686,361.640289 506.000000,365.431610 
	C506.000000,357.362396 505.816101,349.995697 506.035950,342.641022 
	C506.600189,323.765961 504.073395,305.403046 496.987976,287.838837 
	C491.403778,273.995941 483.753204,261.455444 473.807831,250.157867 
	C456.140350,230.088318 434.219604,216.041382 410.030609,205.815399 
	C388.136322,196.559509 365.450958,189.165726 343.071350,181.069931 
	C325.340942,174.655991 307.868286,167.741440 292.173859,157.031677 
	C280.150452,148.827042 271.476959,138.394943 268.204498,123.720932 
	C265.037628,109.520271 272.880249,89.509903 284.962860,80.921432 
	C298.699707,71.157112 313.746613,66.679153 330.547791,65.765923 
	C345.194946,64.969780 359.292664,66.282158 372.487762,72.359184 
	C385.878754,78.526459 395.552277,89.220963 403.188782,101.675797 
	C405.548798,105.524902 407.501526,109.657242 409.297729,113.808311 
	C410.824585,117.336922 412.602539,117.129738 415.803528,115.751404 
	C439.914886,105.369171 464.129883,95.227615 488.317413,85.022476 
	C488.749451,84.840195 489.242126,84.801651 490.048004,84.618362 
	C484.953552,70.171318 478.072144,56.803112 469.054535,44.681995 
	C456.477783,27.776819 441.384460,13.558664 422.462585,3.787999 
	C421.316895,3.196419 420.282257,2.389802 419.097961,1.341619 
	C422.030609,1.000000 425.061188,1.000000 428.545898,1.000001 
z"/>
<path fill="#F07D00" opacity="1.000000" stroke="none" 
	d="
M4507.692383,334.640961 
	C4509.040039,320.321289 4513.078125,307.171448 4518.271484,294.286499 
	C4526.317871,274.325012 4539.729004,258.484467 4557.241211,246.621094 
	C4572.136230,236.530914 4588.902344,229.973236 4607.062988,228.033554 
	C4618.490234,226.813065 4629.979492,224.998871 4641.409180,225.203827 
	C4666.709961,225.657547 4689.923828,233.008636 4709.334961,249.944702 
	C4715.268555,255.121689 4720.654297,260.946960 4726.096680,266.659729 
	C4729.611328,270.348633 4730.231445,270.434021 4733.196777,266.307587 
	C4748.965332,244.362396 4770.556152,231.492996 4796.908691,227.115280 
	C4828.269043,221.905670 4858.100098,227.494659 4885.767578,243.068619 
	C4902.069824,252.245087 4914.409668,265.675415 4923.545410,282.033661 
	C4931.655273,296.555328 4936.423828,312.185455 4938.910156,328.531586 
	C4939.675781,333.562866 4939.950195,338.712860 4939.956055,343.809052 
	C4940.024902,404.138824 4940.000000,464.468689 4940.000000,524.798523 
	C4940.000000,526.622742 4940.000000,528.446960 4940.000000,530.804504 
	C4928.758301,530.804504 4917.633301,531.460693 4906.625000,530.609924 
	C4896.697754,529.842590 4887.034668,526.793457 4879.445801,519.823120 
	C4870.237793,511.366180 4865.342285,500.335571 4865.150879,488.089111 
	C4864.439453,442.502441 4864.716797,396.898682 4863.809082,351.317596 
	C4863.451172,333.372070 4858.811035,316.451935 4844.374512,303.740417 
	C4838.401855,298.480957 4831.485352,295.492920 4824.062988,293.625092 
	C4812.335449,290.673828 4800.651855,291.194031 4789.499512,296.225555 
	C4775.070312,302.735504 4766.366211,314.206146 4763.180176,329.429291 
	C4761.311035,338.357239 4760.179199,347.608704 4760.135254,356.721436 
	C4759.865723,412.716949 4760.000000,468.714355 4760.000000,524.711121 
	C4760.000000,526.542358 4760.000000,528.373596 4760.000000,531.000000 
	C4754.999512,531.000000 4750.083008,531.005127 4745.166504,530.998962 
	C4735.638672,530.987000 4726.125488,531.429688 4716.869629,528.086365 
	C4698.551758,521.469727 4686.559570,505.936432 4686.190918,487.699615 
	C4685.276367,442.452271 4685.686035,397.178497 4684.818848,351.929657 
	C4684.492188,334.902740 4680.680664,318.314911 4667.390137,306.018646 
	C4654.904785,294.467590 4640.029297,290.131470 4623.064453,292.892151 
	C4600.141602,296.622467 4588.698730,311.855377 4583.139648,332.711304 
	C4581.598145,338.492737 4581.103027,344.702454 4581.087891,350.718140 
	C4580.941406,408.881073 4581.000000,467.044525 4581.000000,525.207825 
	C4581.000000,526.994019 4581.000000,528.780212 4581.000000,531.160706 
	C4566.641113,529.970215 4552.548828,533.294006 4538.896484,528.063721 
	C4520.754395,521.113159 4509.627441,508.510681 4507.040039,488.995728 
	C4506.393066,484.111969 4506.053223,479.151245 4506.043945,474.224976 
	C4505.966797,433.227509 4505.946289,392.229645 4506.064941,351.232361 
	C4506.080566,345.832642 4506.977051,340.435486 4507.692383,334.640961 
z"/>
<path fill="#F07D00" opacity="1.000000" stroke="none" 
	d="
M312.087463,651.995239 
	C295.214325,647.563904 278.491760,643.982788 262.406586,638.523621 
	C234.568863,629.075745 208.771210,615.257812 184.459198,598.717163 
	C184.249527,598.574585 184.231720,598.149902 183.880432,597.191345 
	C187.518417,598.027954 190.755341,599.013855 194.065598,599.489319 
	C205.214310,601.090759 216.353287,602.955200 227.565323,603.857849 
	C236.366409,604.566345 245.280609,604.276611 254.126022,603.941284 
	C271.483948,603.283325 288.381927,599.719727 305.174957,595.443665 
	C334.703827,587.924683 362.129028,575.291626 388.789276,560.951721 
	C416.356812,546.123779 442.121246,528.416321 466.935974,509.398041 
	C479.287933,499.931366 491.374451,490.023621 502.819611,479.488190 
	C527.311096,456.943451 551.768372,434.323547 575.343506,410.834900 
	C590.969604,395.266052 605.138672,378.223267 619.775757,361.677246 
	C630.116089,349.988342 640.302673,338.154968 650.269226,326.146545 
	C658.724670,315.958923 666.848999,305.492096 674.966248,295.029694 
	C681.764954,286.266724 688.332642,277.324738 695.036011,268.487274 
	C695.506287,267.867188 696.252319,267.456299 697.516846,266.416077 
	C698.742310,273.798889 700.473816,280.552277 700.877686,287.384186 
	C701.902405,304.717896 703.012329,322.096008 702.775696,339.438477 
	C702.599792,352.331299 700.483093,365.208954 699.028137,378.070435 
	C696.771118,398.023010 691.631958,417.321014 684.986755,436.204590 
	C673.790710,468.020020 658.233093,497.513885 638.024963,524.608032 
	C625.639099,541.214417 611.893066,556.553162 596.765137,570.599854 
	C579.491699,586.638733 560.416260,600.362061 540.142517,612.418030 
	C516.973328,626.195923 492.445648,636.933594 466.480591,644.001465 
	C451.316895,648.129150 435.838837,651.390503 420.309357,653.796875 
	C407.350189,655.804993 394.124359,656.312622 380.990448,656.903198 
	C370.322021,657.382935 359.565338,657.644287 348.937744,656.829468 
	C336.748383,655.894836 324.658203,653.666504 312.087463,651.995239 
z"/>
<path fill="#0071BA" opacity="1.000000" stroke="none" 
	d="
M1246.000244,437.945618 
	C1242.786621,457.263977 1235.895386,474.452972 1224.132446,489.810852 
	C1211.841797,505.857697 1196.136719,517.339478 1177.740112,524.745239 
	C1165.651489,529.611633 1152.887329,533.947998 1140.055298,535.543274 
	C1121.898560,537.800659 1103.358765,538.362427 1085.061890,537.640625 
	C1071.867310,537.120178 1058.522583,534.331299 1045.740723,530.772827 
	C1023.445190,524.565674 1004.717163,512.592163 994.631592,490.773163 
	C991.378174,483.734711 989.765259,475.529572 989.234741,467.733429 
	C988.366760,454.978027 989.000000,442.120483 989.000000,428.130707 
	C991.712769,429.775055 993.751831,430.876617 995.648987,432.184143 
	C1004.348145,438.179565 1012.781799,444.593964 1021.732422,450.182770 
	C1036.184692,459.206726 1052.044312,465.289642 1068.831299,467.672058 
	C1081.933472,469.531464 1095.165771,470.865173 1108.670776,469.308289 
	C1119.238892,468.089996 1129.768188,467.262726 1139.938721,464.031921 
	C1159.020752,457.970367 1171.172974,441.363953 1171.072632,421.389832 
	C1171.033203,413.562836 1170.436890,406.059204 1165.878784,399.375122 
	C1160.070190,390.857269 1151.269043,386.638550 1142.142334,382.996643 
	C1118.236328,373.457367 1092.797974,369.545227 1068.079346,362.984680 
	C1043.522827,356.467224 1020.697693,346.499939 1002.606995,328.003021 
	C991.154907,316.293762 984.681946,302.042542 981.894470,285.805847 
	C976.858765,256.473083 983.702393,229.734024 999.120178,205.014084 
	C1009.701294,188.049133 1024.373779,174.949265 1041.758667,165.082382 
	C1057.713745,156.027023 1074.876099,149.786057 1092.976074,147.265182 
	C1108.432007,145.112549 1124.081055,143.509293 1139.802734,145.928467 
	C1150.615479,147.592270 1161.682129,147.897354 1172.348022,150.162262 
	C1192.976196,154.542694 1211.945068,162.722000 1225.809570,179.475967 
	C1232.466187,187.520020 1236.203247,197.376038 1236.798340,207.673615 
	C1237.604126,221.615280 1236.998779,235.638504 1236.998779,251.194046 
	C1233.150635,248.252716 1229.936890,246.244843 1227.261108,243.676590 
	C1212.719238,229.718964 1194.917114,222.027985 1175.808350,217.111862 
	C1157.917725,212.509201 1139.523193,212.130844 1121.251709,213.191879 
	C1106.993652,214.019836 1092.607666,215.921753 1079.810181,223.094803 
	C1061.725708,233.231400 1053.333130,250.569687 1058.183105,270.679688 
	C1060.536377,280.437164 1068.104248,286.495209 1076.828857,290.976074 
	C1093.990601,299.790253 1112.461792,304.555023 1131.078125,309.111511 
	C1148.045654,313.264526 1165.022217,317.642365 1181.561890,323.208130 
	C1197.970703,328.729858 1212.594238,338.023987 1224.250977,350.950806 
	C1237.414307,365.548431 1245.347168,382.612610 1247.227417,402.637909 
	C1248.335571,414.443207 1247.564697,425.921539 1246.000244,437.945618 
z"/>
<path fill="#F07D00" opacity="1.000000" stroke="none" 
	d="
M4389.994141,511.001892 
	C4376.028809,521.456909 4360.811035,528.482422 4344.343262,533.018311 
	C4325.512207,538.204956 4306.225586,539.097351 4286.996094,537.799438 
	C4265.321289,536.336609 4245.042969,529.746277 4226.399902,518.047180 
	C4203.205566,503.491852 4186.271973,483.650116 4174.657715,459.126526 
	C4168.308105,445.719727 4163.778320,431.643341 4162.045898,416.846802 
	C4160.768555,405.932617 4158.933594,394.932098 4159.211426,384.017517 
	C4159.882812,357.626556 4164.226562,331.861176 4175.091309,307.432068 
	C4183.581055,288.343414 4195.557617,271.815826 4211.330566,258.400299 
	C4230.362793,242.211823 4252.341309,231.528564 4277.329590,228.074387 
	C4288.206543,226.570862 4299.224121,225.042755 4310.156250,225.181381 
	C4341.162598,225.574554 4369.756348,234.305130 4394.178711,253.857254 
	C4421.790039,275.962494 4437.810059,305.188904 4445.147949,339.635254 
	C4448.686523,356.250244 4449.913574,372.984009 4448.827148,389.749207 
	C4447.381348,412.071747 4443.108887,433.901276 4433.890137,454.573822 
	C4427.387207,469.157837 4419.336426,482.672333 4408.227051,494.168335 
	C4402.556152,500.036713 4396.328125,505.367218 4389.994141,511.001892 
M4342.313965,305.052673 
	C4340.426758,303.789398 4338.587891,302.444794 4336.644043,301.276062 
	C4322.421387,292.726318 4306.645020,291.821350 4290.846191,293.286194 
	C4283.973145,293.923462 4276.878906,296.665680 4270.759766,300.038391 
	C4257.081543,307.577728 4248.926270,320.100861 4244.098633,334.574036 
	C4238.415039,351.612183 4236.391113,369.079529 4237.751953,387.210999 
	C4238.923828,402.822388 4241.004883,417.990112 4246.998047,432.500946 
	C4253.723633,448.784210 4264.558594,461.018982 4281.587402,466.784149 
	C4294.192871,471.051910 4307.212891,472.292419 4320.363770,469.928864 
	C4331.349609,467.954254 4341.580078,463.449127 4349.010254,455.203217 
	C4364.189453,438.357452 4370.017090,417.506989 4370.806641,395.379120 
	C4371.228516,383.564545 4370.338867,371.594971 4368.857910,359.844421 
	C4366.229492,338.992737 4359.186523,319.939087 4342.313965,305.052673 
z"/>
<path fill="#0071BA" opacity="1.000000" stroke="none" 
	d="
M1843.350830,511.741028 
	C1834.533325,504.479828 1826.586914,496.963287 1820.701294,487.402557 
	C1814.376099,477.127960 1810.546143,466.175598 1808.890381,454.196350 
	C1806.684937,438.239197 1808.294189,422.874786 1813.968750,407.866943 
	C1818.542603,395.769745 1826.226562,386.092529 1836.206543,377.903076 
	C1855.505981,362.066467 1878.604858,355.580505 1902.347534,351.253113 
	C1914.734375,348.995453 1927.519531,348.583832 1940.153687,348.115387 
	C1953.876953,347.606598 1967.633423,348.000000 1982.002075,348.000000 
	C1981.986694,330.816803 1981.094604,315.220490 1968.640625,303.270264 
	C1961.757324,296.665253 1952.910645,293.157806 1943.630005,292.173645 
	C1930.853638,290.818787 1917.868652,289.427338 1905.117188,290.260010 
	C1878.956665,291.968323 1854.212891,298.919647 1833.084961,315.493256 
	C1830.611694,317.433472 1828.662354,320.029419 1826.276367,322.098022 
	C1825.053101,323.158661 1823.401367,323.725189 1821.026367,325.011627 
	C1821.427246,305.868469 1818.396973,287.625519 1827.994019,270.842865 
	C1834.426392,259.594208 1843.192139,250.535324 1854.246094,244.075851 
	C1869.853760,234.955551 1886.705078,229.209885 1904.924438,227.966949 
	C1912.290894,227.464401 1919.659546,225.917023 1926.988647,226.136139 
	C1952.561646,226.900650 1977.895264,229.339523 2000.783813,242.377777 
	C2016.774902,251.487061 2029.174561,264.093292 2038.141724,280.301880 
	C2046.113037,294.710724 2051.057617,310.067841 2053.841064,326.130188 
	C2055.182373,333.870972 2055.836914,341.816071 2055.906006,349.676544 
	C2056.148193,377.173462 2056.089355,404.674194 2055.972168,432.172760 
	C2055.874268,455.177673 2049.257568,476.273224 2035.547974,494.724640 
	C2023.974121,510.301544 2008.626343,521.202942 1990.379028,528.046143 
	C1975.505737,533.624023 1960.248901,536.488708 1944.331177,536.047180 
	C1935.005371,535.788452 1925.653564,536.318298 1916.336060,535.938538 
	C1891.429932,534.923462 1868.432617,527.468018 1847.153198,514.589722 
	C1845.909180,513.836853 1844.817627,512.832458 1843.350830,511.741028 
M1886.003052,448.235229 
	C1888.605591,457.749847 1894.454468,464.570129 1903.341431,468.707397 
	C1918.597656,475.809692 1934.606201,476.677917 1950.846069,473.525635 
	C1962.908813,471.184143 1972.619995,465.199829 1977.888062,453.426788 
	C1984.238037,439.235657 1983.444214,424.208557 1982.585571,409.331879 
	C1982.167725,402.094208 1981.153198,402.002594 1973.705566,402.000671 
	C1963.382446,401.997986 1953.057007,401.862091 1942.736816,402.035675 
	C1930.450195,402.242371 1918.323608,403.869019 1906.714844,408.027893 
	C1887.380737,414.954437 1882.344604,429.562775 1886.003052,448.235229 
z"/>
<path fill="#0071BA" opacity="1.000000" stroke="none" 
	d="
M3540.314453,349.036133 
	C3561.942383,348.125702 3583.109619,347.243103 3604.339600,346.357880 
	C3606.616699,322.434906 3599.177979,299.522858 3571.037842,292.912872 
	C3556.686768,289.541931 3542.161621,289.255920 3527.730469,290.204529 
	C3509.182617,291.423706 3490.860596,295.118347 3474.375244,304.145233 
	C3465.740723,308.873230 3458.198975,315.589478 3450.121338,321.348694 
	C3448.455811,322.536224 3446.603027,323.461731 3443.763428,325.143646 
	C3444.976562,308.694641 3441.821045,293.621948 3447.407471,278.967865 
	C3453.416504,263.205475 3464.276123,251.769104 3478.377197,243.374100 
	C3492.184326,235.154297 3507.442383,230.571167 3523.282959,228.092316 
	C3527.818604,227.382523 3532.456055,227.121506 3537.053223,227.046707 
	C3546.572510,226.891830 3556.111816,226.642059 3565.614258,227.069443 
	C3590.642090,228.195099 3614.200195,234.388992 3634.710449,249.384277 
	C3650.349365,260.818329 3660.602783,276.550781 3667.909180,294.199646 
	C3674.185547,309.360382 3677.759277,325.231201 3677.976318,341.702972 
	C3678.401611,373.957703 3679.741943,406.250305 3678.671631,438.459717 
	C3677.748779,466.249023 3666.244873,490.378082 3645.229248,509.112854 
	C3631.541016,521.315308 3615.222900,528.710144 3597.385498,533.074768 
	C3582.391113,536.743652 3567.212646,535.587280 3552.065674,536.067444 
	C3531.821533,536.709290 3512.318604,533.505249 3493.477051,526.143738 
	C3463.906738,514.590332 3441.486084,495.561768 3433.625244,463.803009 
	C3427.027100,437.147278 3430.494629,411.277649 3447.813721,388.930878 
	C3457.645264,376.245178 3471.280029,367.991058 3486.074707,362.130127 
	C3502.594971,355.585388 3519.714355,351.103973 3537.567383,349.939484 
	C3538.345459,349.888763 3539.092529,349.366608 3540.314453,349.036133 
M3508.000000,441.312256 
	C3508.610107,453.149902 3514.067139,462.160889 3524.448975,467.716217 
	C3539.839844,475.951965 3556.476074,476.656067 3573.193359,473.750275 
	C3583.093018,472.029633 3592.033691,467.706909 3597.856934,458.683136 
	C3602.574463,451.372955 3605.171631,443.519806 3605.099121,434.765717 
	C3605.009521,423.929840 3605.077393,413.092651 3605.077393,401.963165 
	C3583.435059,402.515503 3561.389648,400.203522 3539.684570,405.036957 
	C3520.706543,409.263184 3506.647217,418.271912 3508.000000,441.312256 
z"/>
<path fill="#0071BA" opacity="1.000000" stroke="none" 
	d="
M2751.706543,364.708038 
	C2767.322266,357.429810 2783.346191,352.811432 2800.090820,351.059265 
	C2812.836182,349.725586 2825.629639,348.621582 2838.429688,348.107361 
	C2850.792236,347.610718 2863.190674,347.999817 2876.049316,347.999817 
	C2875.965332,330.786316 2875.059326,315.313629 2862.811523,303.418427 
	C2855.949219,296.753418 2847.099609,293.218689 2837.854004,292.195831 
	C2824.922852,290.765259 2811.758301,289.398529 2798.846191,290.268158 
	C2772.874512,292.017334 2748.270020,298.904114 2727.274658,315.364380 
	C2724.801025,317.303650 2722.851318,319.900391 2720.445068,321.940216 
	C2719.116699,323.066101 2717.343506,323.667358 2714.755371,325.046234 
	C2716.071289,308.644287 2712.810547,293.461121 2718.591797,278.616425 
	C2724.735352,262.841309 2735.617920,251.494003 2749.730225,243.163956 
	C2763.409180,235.089630 2778.525146,230.551025 2794.201172,228.097076 
	C2798.737549,227.386948 2803.375488,227.123856 2807.973145,227.046875 
	C2817.326660,226.890259 2826.697266,226.686188 2836.038330,227.060455 
	C2861.261475,228.071106 2884.998291,234.247437 2905.646484,249.357285 
	C2921.404053,260.888123 2931.682373,276.728455 2939.006104,294.611755 
	C2945.179199,309.685303 2948.724365,325.359161 2948.962402,341.648865 
	C2949.434082,373.906769 2950.735107,406.203278 2949.675049,438.417450 
	C2948.754150,466.411896 2937.127197,490.690643 2915.888184,509.429352 
	C2902.166260,521.535950 2885.823975,528.864197 2867.922363,533.134094 
	C2853.212891,536.642517 2838.398682,535.560669 2823.585449,536.059143 
	C2803.177979,536.745850 2783.494629,533.598022 2764.485352,526.155457 
	C2734.921875,514.580688 2712.488281,495.568146 2704.625488,463.804199 
	C2698.026367,437.144379 2701.469482,411.249908 2718.846436,388.946106 
	C2727.273682,378.129089 2738.493164,370.158936 2751.706543,364.708038 
M2867.044189,461.432770 
	C2880.533936,443.286011 2876.131348,422.362854 2877.059326,402.000000 
	C2862.758301,402.000000 2849.213135,401.221527 2835.802490,402.232544 
	C2823.869141,403.132141 2811.788574,404.988342 2800.316406,408.302704 
	C2788.293945,411.776245 2780.165039,420.339203 2779.056885,433.625488 
	C2777.804199,448.648590 2782.271240,460.876526 2796.602051,468.279449 
	C2808.719238,474.538666 2821.656738,475.560547 2834.830566,474.925201 
	C2846.822021,474.346893 2857.936768,471.079163 2867.044189,461.432770 
z"/>
<path fill="#0071BA" opacity="1.000000" stroke="none" 
	d="
M1307.000000,326.000000 
	C1307.000000,294.534027 1307.000000,263.568054 1307.000000,231.595978 
	C1316.831543,232.050232 1326.431274,231.858841 1335.835815,233.121246 
	C1343.937012,234.208694 1352.314941,235.852722 1359.687500,239.196945 
	C1374.412354,245.876175 1382.400024,258.674561 1382.766724,274.395020 
	C1383.775269,317.627625 1383.376831,360.891388 1384.143799,404.132050 
	C1384.447266,421.242645 1387.907959,437.965790 1399.356689,451.574829 
	C1406.746094,460.358459 1416.394653,466.302856 1427.618408,469.164673 
	C1440.305054,472.399475 1452.835327,472.277039 1464.975464,466.552582 
	C1479.177856,459.855621 1487.457886,448.129272 1490.733887,433.454895 
	C1493.318848,421.876373 1494.723999,409.805603 1494.817261,397.939026 
	C1495.236572,344.622833 1495.000000,291.301514 1495.000000,237.982040 
	C1495.000000,236.178360 1495.000000,234.374680 1495.000000,232.223053 
	C1511.736084,231.649139 1528.163818,231.023087 1543.801392,237.403610 
	C1557.857178,243.138672 1566.002319,253.976959 1568.904175,268.655731 
	C1570.104980,274.729401 1570.876099,280.992828 1570.909546,287.175018 
	C1571.097168,321.831665 1571.127563,356.490479 1570.952759,391.147247 
	C1570.846069,412.331909 1569.634888,433.468567 1563.951538,454.026245 
	C1559.276855,470.935486 1552.143555,486.573273 1540.518311,500.118469 
	C1523.324829,520.151489 1501.080078,530.088135 1475.778076,535.141663 
	C1459.213013,538.450134 1442.500610,539.023987 1425.956543,537.733704 
	C1398.903564,535.623840 1373.853394,527.185913 1352.662231,509.221771 
	C1328.859863,489.044159 1315.026855,463.297363 1310.137695,432.788177 
	C1308.246704,420.988403 1307.365845,408.937775 1307.134033,396.979950 
	C1306.678589,373.494598 1307.000000,349.994171 1307.000000,326.000000 
z"/>
<path fill="#0071BA" opacity="1.000000" stroke="none" 
	d="
M2657.279785,222.314117 
	C2648.526855,237.761765 2640.390869,253.139587 2631.349854,267.965607 
	C2621.708740,283.775177 2611.584717,299.322968 2600.991455,314.510559 
	C2588.698486,332.135284 2575.586426,349.187134 2563.048340,366.644501 
	C2561.375977,368.973083 2560.135986,372.218536 2560.126221,375.044342 
	C2559.952148,425.042725 2560.000000,475.041901 2560.000000,525.040894 
	C2560.000000,526.842773 2560.000000,528.644714 2560.000000,531.230896 
	C2544.068359,529.745605 2528.158936,533.893677 2512.913086,528.875916 
	C2496.205322,523.376953 2486.702881,510.842712 2483.058105,493.855469 
	C2482.273438,490.198761 2482.051758,486.362061 2482.043457,482.607239 
	C2481.968262,449.441376 2481.664062,416.269714 2482.218018,383.112946 
	C2482.370850,373.960144 2479.577393,367.003448 2474.482910,359.713409 
	C2462.204590,342.143280 2449.976562,324.444397 2439.204834,305.938049 
	C2424.984131,281.506927 2411.232422,256.705688 2399.030518,231.224808 
	C2387.502686,207.151337 2378.241943,181.992218 2367.980225,157.312271 
	C2367.361816,155.824936 2366.708252,154.352234 2365.868164,152.401474 
	C2367.142334,152.248856 2368.179688,152.018097 2369.217285,152.016357 
	C2383.550293,151.992508 2397.900146,151.576660 2412.210938,152.140106 
	C2422.790771,152.556656 2432.118652,156.767242 2440.884033,163.098740 
	C2451.297363,170.620911 2454.820557,181.954941 2459.977051,192.575333 
	C2467.434082,207.934830 2475.072754,223.208908 2482.830078,238.419418 
	C2494.729248,261.752563 2508.040527,284.254456 2522.916260,305.830078 
	C2525.050293,308.925537 2526.174805,308.851624 2528.112793,305.699280 
	C2541.300293,284.249908 2555.258789,263.245697 2567.719727,241.386032 
	C2583.090088,214.422913 2596.091553,186.258514 2605.180176,156.453262 
	C2606.154053,153.259079 2607.619385,151.773178 2611.385742,151.883270 
	C2622.542725,152.209442 2633.723389,151.726624 2644.879639,152.064728 
	C2661.189209,152.559021 2670.795410,163.158035 2671.992920,178.970352 
	C2672.670410,187.913635 2669.205811,195.918579 2665.949707,203.885773 
	C2663.431641,210.046539 2660.336670,215.971603 2657.279785,222.314117 
z"/>
<path fill="#0071BA" opacity="1.000000" stroke="none" 
	d="
M2238.000488,409.998718 
	C2245.817139,388.835327 2254.150146,368.253448 2261.181152,347.235992 
	C2271.010742,317.852814 2278.771973,287.868805 2284.040771,257.287415 
	C2285.310303,249.917023 2286.554688,242.536865 2288.125977,235.229050 
	C2288.395020,233.977890 2290.266846,232.135849 2291.385254,232.145004 
	C2305.307129,232.258972 2319.270020,232.100464 2333.133301,233.167252 
	C2345.073975,234.086075 2352.748535,243.163940 2355.127441,255.231140 
	C2357.433350,266.927185 2355.359131,278.214355 2352.705566,289.275970 
	C2348.403076,307.211243 2343.822266,325.173462 2337.773438,342.573151 
	C2329.644287,365.956543 2320.420410,388.988281 2310.882568,411.843994 
	C2303.571533,429.363434 2295.914551,446.848694 2286.852295,463.500610 
	C2274.291748,486.580841 2260.357422,508.919098 2246.713867,531.394287 
	C2245.560303,533.294312 2242.137939,534.864563 2239.808105,534.814026 
	C2231.453125,534.632568 2223.080566,533.972473 2214.778564,532.965393 
	C2202.591064,531.487000 2193.879395,523.575500 2187.448486,514.371155 
	C2177.716309,500.441650 2169.144775,485.613800 2161.054443,470.641144 
	C2136.770752,425.699799 2117.759521,378.499451 2103.052490,329.623840 
	C2096.989746,309.475769 2091.901611,289.004181 2087.199951,268.489594 
	C2084.839111,258.189636 2084.354980,247.461411 2082.972412,236.933441 
	C2082.785156,235.508286 2082.304932,234.121643 2081.850342,232.268204 
	C2083.533936,232.168564 2084.957520,232.013229 2086.381104,232.011124 
	C2099.213623,231.992126 2112.053955,232.281509 2124.877197,231.938354 
	C2147.916016,231.321854 2164.187744,250.177399 2168.110352,269.269073 
	C2172.646729,291.345856 2177.156494,313.497711 2183.311523,335.152649 
	C2189.496338,356.913605 2197.196777,378.289520 2205.182129,399.476593 
	C2210.302734,413.063629 2217.140869,426.003448 2223.209229,439.233398 
	C2223.716553,439.246979 2224.223877,439.260559 2224.731201,439.274139 
	C2229.132812,429.644714 2233.534424,420.015320 2238.000488,409.998718 
z"/>
<path fill="#F07D00" opacity="1.000000" stroke="none" 
	d="
M4032.686279,467.039490 
	C4034.411377,467.379364 4035.703857,468.046539 4036.932129,467.944489 
	C4051.410156,466.742249 4066.066895,466.901917 4080.067383,462.063110 
	C4093.103027,457.557678 4105.436035,452.010406 4114.597168,441.100037 
	C4115.348145,440.205322 4117.154785,440.196381 4118.063965,439.905792 
	C4118.063965,455.834747 4119.173828,471.497803 4117.733398,486.922760 
	C4116.443848,500.730164 4107.338379,510.894867 4096.275879,518.938232 
	C4081.209473,529.892761 4064.155518,535.072571 4045.693359,535.993652 
	C4038.101074,536.372498 4030.469727,537.298706 4022.916016,536.884949 
	C3997.341797,535.483948 3973.239014,528.869568 3951.061523,515.650818 
	C3938.411621,508.110992 3926.808594,499.298187 3916.974121,488.380463 
	C3898.204834,467.543701 3884.709473,443.850739 3880.091797,415.845337 
	C3878.468750,406.001495 3876.914307,395.936737 3877.197998,386.026459 
	C3878.143311,353.036316 3885.806152,321.898743 3904.916504,294.243896 
	C3917.624756,275.853424 3933.774170,261.487579 3953.095947,250.306213 
	C3968.337402,241.486282 3984.612061,235.334961 4001.735840,232.427521 
	C4016.106934,229.987534 4030.930908,228.933731 4045.502686,229.302826 
	C4061.514648,229.708389 4076.937256,234.097717 4090.744385,242.939453 
	C4105.845215,252.609314 4117.202637,265.680603 4119.571289,283.501770 
	C4121.539551,298.311798 4119.974121,313.591583 4119.974121,329.399353 
	C4118.494629,328.557617 4116.255859,328.005829 4115.220215,326.580261 
	C4106.912109,315.142151 4094.824951,309.596436 4082.138916,304.993500 
	C4071.475830,301.124390 4060.364990,299.932068 4049.101807,298.725861 
	C4035.384521,297.256866 4022.244141,298.412445 4009.504395,303.082336 
	C3981.635010,313.298126 3964.114258,333.359680 3957.277832,361.967957 
	C3953.767334,376.660095 3955.518799,391.860321 3959.330078,406.438416 
	C3963.480713,422.313385 3971.164551,436.392548 3983.291748,447.852631 
	C3993.830078,457.811066 4006.335449,463.546234 4020.462891,465.950745 
	C4024.331299,466.609131 4028.300781,466.672821 4032.686279,467.039490 
z"/>
<path fill="#0071BA" opacity="1.000000" stroke="none" 
	d="
M3187.982910,268.437103 
	C3184.586182,278.067383 3179.981934,286.412964 3171.519043,291.942963 
	C3163.614258,297.107941 3154.543701,298.674316 3145.445068,298.877930 
	C3127.121338,299.288025 3108.781982,299.000000 3090.449219,299.000000 
	C3088.811523,299.000000 3087.173828,299.000000 3085.000000,299.000000 
	C3085.000000,301.111084 3085.000000,302.885559 3085.000000,304.660034 
	C3085.000000,343.659058 3084.902832,382.658539 3085.076172,421.656799 
	C3085.113770,430.149231 3086.936279,438.411346 3090.618896,446.228729 
	C3096.350830,458.396271 3106.323730,465.094513 3119.096191,466.846985 
	C3140.844971,469.831085 3162.213623,467.957489 3182.585693,458.909241 
	C3184.093994,458.239410 3185.867676,458.167053 3188.316895,457.647339 
	C3186.650879,472.996368 3190.484863,487.777832 3185.420654,502.199036 
	C3179.937744,517.811401 3168.428955,527.109253 3153.103760,530.708557 
	C3141.251709,533.492065 3128.761963,534.943665 3116.599854,534.709595 
	C3096.862549,534.329712 3077.320557,531.359497 3059.383545,522.057922 
	C3037.946533,510.941620 3024.104004,493.331207 3017.201660,470.556427 
	C3014.066650,460.212006 3012.485840,449.303741 3011.157471,438.533173 
	C3010.047607,429.533905 3010.058594,420.363037 3010.044678,411.267456 
	C3009.957031,353.435669 3009.865967,295.603149 3010.111572,237.772293 
	C3010.161621,226.017242 3012.106934,214.295624 3018.085693,203.866119 
	C3026.429443,189.310852 3037.142334,176.718658 3051.817871,168.235764 
	C3056.015381,165.809433 3061.283691,164.720276 3066.190186,164.167038 
	C3072.237793,163.485153 3078.420898,164.004120 3084.844482,164.004120 
	C3084.844482,186.704285 3084.844482,208.981766 3084.844482,231.743591 
	C3119.209473,231.743591 3153.272705,231.743591 3187.996826,231.743591 
	C3187.996826,244.142548 3187.996826,256.068054 3187.982910,268.437103 
z"/>
<path fill="#0071BA" opacity="1.000000" stroke="none" 
	d="
M1644.000000,168.000000 
	C1644.000000,155.864853 1644.000000,144.229691 1644.000000,132.929703 
	C1654.491821,132.929703 1664.692749,132.603973 1674.857910,133.063690 
	C1680.136841,133.302444 1685.536133,134.374390 1690.563599,136.032547 
	C1706.356323,141.241409 1714.255005,153.396774 1717.942749,168.825027 
	C1718.657959,171.817108 1718.955933,174.978104 1718.957886,178.061478 
	C1719.010620,262.857208 1718.942139,347.653046 1719.092773,432.448547 
	C1719.107178,440.548248 1719.954346,448.768372 1724.038452,456.122131 
	C1729.604614,466.144745 1739.336914,469.961792 1749.687378,470.755402 
	C1762.841187,471.763977 1776.130981,470.999512 1790.443848,470.999512 
	C1789.935425,479.459259 1789.590576,486.641083 1789.041382,493.807281 
	C1788.703979,498.207581 1788.486816,502.687531 1787.465942,506.952179 
	C1784.054810,521.200623 1773.982300,528.687256 1760.437378,531.920959 
	C1747.808960,534.936096 1735.019775,534.416321 1722.146729,533.120544 
	C1709.526001,531.850220 1697.654297,528.736145 1686.238525,523.122803 
	C1665.590332,512.969666 1653.596558,495.933502 1648.276611,474.376831 
	C1645.442505,462.892242 1644.220459,450.738281 1644.177612,438.879578 
	C1643.852905,348.753998 1644.000000,258.626740 1644.000000,168.000000 
z"/>
<path fill="#0071BA" opacity="1.000000" stroke="none" 
	d="
M3231.000000,374.000000 
	C3231.000000,364.001038 3230.611328,354.482971 3231.077881,345.006989 
	C3232.174072,322.743896 3235.254150,300.809601 3246.089600,280.861511 
	C3254.621338,265.154388 3266.753418,252.891617 3282.347412,243.823669 
	C3296.893799,235.364792 3312.377686,231.332581 3329.054443,229.791748 
	C3347.249512,228.110687 3364.753174,229.014404 3380.954834,238.066666 
	C3395.404053,246.139740 3403.439209,258.624329 3403.947021,275.380310 
	C3404.239258,285.022583 3404.000000,294.680969 3404.000000,305.201965 
	C3401.890869,304.785492 3400.035889,304.639771 3398.335693,304.048950 
	C3384.146484,299.117645 3369.736572,296.219360 3354.536133,296.894379 
	C3331.444824,297.919800 3314.903809,309.463074 3310.148682,332.563965 
	C3308.310059,341.495636 3307.179932,350.738831 3307.135010,359.847046 
	C3306.863525,414.839630 3307.000000,469.834198 3307.000000,524.828125 
	C3307.000000,526.649719 3307.000000,528.471252 3307.000000,531.000000 
	C3297.408447,531.000000 3287.981934,531.198792 3278.567139,530.953369 
	C3264.473389,530.585938 3251.930664,525.923096 3242.193115,515.523865 
	C3236.065430,508.979706 3232.198730,500.873138 3232.078125,491.767212 
	C3231.562012,452.680206 3231.333496,413.589417 3231.000000,374.000000 
z"/>
<path fill="#0071BA" opacity="1.000000" stroke="none" 
	d="
M864.999878,82.166649 
	C863.702637,82.253670 862.118103,81.884636 861.150146,82.494370 
	C836.418884,98.072754 811.754211,113.756989 787.072937,129.414856 
	C774.321289,137.504547 761.634216,145.701477 748.720337,153.523788 
	C746.859436,154.651001 743.493347,154.832321 741.489441,153.946136 
	C721.596436,145.148926 701.863220,135.991333 682.043579,127.026772 
	C670.373352,121.748253 658.626770,116.638756 646.923462,111.433189 
	C646.241882,111.130058 645.640381,110.647064 643.843506,109.523911 
	C651.607361,108.219002 658.203247,107.084557 664.808228,106.005920 
	C676.700256,104.063889 688.591370,102.115356 700.494690,100.244247 
	C711.927673,98.447052 723.385559,96.807724 734.814270,94.984261 
	C748.800354,92.752739 762.756653,90.333344 776.746094,88.123901 
	C788.181519,86.317825 799.659363,84.780724 811.095520,82.979179 
	C824.926086,80.800461 838.711487,78.327644 852.559326,76.270111 
	C858.408813,75.400986 864.367554,75.266914 870.629333,75.332535 
	C868.987976,77.966423 866.993958,80.066536 864.999878,82.166649 
z"/>
<path fill="#F07D00" opacity="1.000000" stroke="none" 
	d="
M3740.239258,454.390991 
	C3747.855713,446.007294 3755.927734,439.259888 3767.203125,436.798828 
	C3781.780029,433.617188 3795.160889,435.927826 3806.974121,444.669006 
	C3820.068115,454.357635 3827.049805,467.853455 3826.893799,484.217499 
	C3826.680420,506.612122 3809.869629,527.316040 3787.757568,530.689392 
	C3758.628418,535.133362 3736.563721,518.565918 3731.289062,491.443512 
	C3728.772217,478.501465 3731.716309,465.659821 3740.239258,454.390991 
z"/>
<path fill="#F07D00" opacity="1.000000" stroke="none" 
	d="
M864.854187,82.487137 
	C866.993958,80.066536 868.987976,77.966423 870.990845,75.516479 
	C873.091431,73.894363 874.033264,73.379440 873.140747,76.789940 
	C870.475769,86.973206 868.278809,97.277847 865.766663,107.502518 
	C863.576660,116.415810 861.780518,125.484070 858.780579,134.126404 
	C854.369507,146.833908 852.840820,160.275970 848.612732,172.884033 
	C845.401184,182.460709 844.366638,192.490723 840.800659,201.930130 
	C839.095459,206.444031 838.063965,211.220566 836.456238,215.841110 
	C833.467834,224.429825 832.873535,233.824921 830.825745,242.779846 
	C829.932007,246.688202 827.605408,250.251190 826.493896,254.132629 
	C825.476501,257.685791 825.392273,261.494995 824.588440,265.123047 
	C823.236755,271.223450 821.602539,277.260742 820.175781,283.345367 
	C819.843628,284.762115 819.867615,286.262329 819.074341,287.899078 
	C816.669373,289.048767 814.917969,290.023499 813.166565,290.998291 
	C809.950073,281.670166 806.734985,272.341614 803.516785,263.014069 
	C796.490845,242.650146 789.679016,222.208008 782.292053,201.975891 
	C780.326843,196.593338 781.300598,192.442917 784.385315,188.352982 
	C790.922302,179.685471 797.502686,171.046417 804.259766,162.550293 
	C810.756104,154.381882 817.717041,146.577316 824.078979,138.309036 
	C833.228516,126.417580 842.003784,114.238472 850.974792,102.209015 
	C853.898071,98.289101 857.024536,94.518578 859.885010,90.554840 
	C861.661011,88.093796 863.111816,85.398048 864.854187,82.487137 
z"/>
<path fill="#F07D00" opacity="1.000000" stroke="none" 
	d="
M813.209351,291.359985 
	C814.917969,290.023499 816.669373,289.048767 818.768066,288.057800 
	C819.023315,289.168671 819.218994,290.428436 818.774292,291.392944 
	C818.034424,292.997711 816.883667,294.413025 815.905884,295.908081 
	C815.021301,294.512604 814.136719,293.117157 813.209351,291.359985 
z"/>
<path fill="#0071BA" opacity="1.000000" stroke="none" 
	d="
M200.781937,48.585777 
	C200.190750,48.343094 199.873718,47.890034 199.216934,47.201237 
	C199.786926,46.363838 200.696686,45.762177 202.517532,44.557987 
	C201.790802,46.456264 201.423447,47.415829 200.781937,48.585777 
z"/>
<path fill="#FFFFFF" opacity="1.000000" stroke="none" 
	d="
M4342.621094,305.244812 
	C4359.186523,319.939087 4366.229492,338.992737 4368.857910,359.844421 
	C4370.338867,371.594971 4371.228516,383.564545 4370.806641,395.379120 
	C4370.017090,417.506989 4364.189453,438.357452 4349.010254,455.203217 
	C4341.580078,463.449127 4331.349609,467.954254 4320.363770,469.928864 
	C4307.212891,472.292419 4294.192871,471.051910 4281.587402,466.784149 
	C4264.558594,461.018982 4253.723633,448.784210 4246.998047,432.500946 
	C4241.004883,417.990112 4238.923828,402.822388 4237.751953,387.210999 
	C4236.391113,369.079529 4238.415039,351.612183 4244.098633,334.574036 
	C4248.926270,320.100861 4257.081543,307.577728 4270.759766,300.038391 
	C4276.878906,296.665680 4283.973145,293.923462 4290.846191,293.286194 
	C4306.645020,291.821350 4322.421387,292.726318 4336.644043,301.276062 
	C4338.587891,302.444794 4340.426758,303.789398 4342.621094,305.244812 
z"/>
<path fill="#FFFFFF" opacity="1.000000" stroke="none" 
	d="
M1885.993896,447.803558 
	C1882.344604,429.562775 1887.380737,414.954437 1906.714844,408.027893 
	C1918.323608,403.869019 1930.450195,402.242371 1942.736816,402.035675 
	C1953.057007,401.862091 1963.382446,401.997986 1973.705566,402.000671 
	C1981.153198,402.002594 1982.167725,402.094208 1982.585571,409.331879 
	C1983.444214,424.208557 1984.238037,439.235657 1977.888062,453.426788 
	C1972.619995,465.199829 1962.908813,471.184143 1950.846069,473.525635 
	C1934.606201,476.677917 1918.597656,475.809692 1903.341431,468.707397 
	C1894.454468,464.570129 1888.605591,457.749847 1885.993896,447.803558 
z"/>
<path fill="#FFFFFF" opacity="1.000000" stroke="none" 
	d="
M3508.000000,440.844177 
	C3506.647217,418.271912 3520.706543,409.263184 3539.684570,405.036957 
	C3561.389648,400.203522 3583.435059,402.515503 3605.077393,401.963165 
	C3605.077393,413.092651 3605.009521,423.929840 3605.099121,434.765717 
	C3605.171631,443.519806 3602.574463,451.372955 3597.856934,458.683136 
	C3592.033691,467.706909 3583.093018,472.029633 3573.193359,473.750275 
	C3556.476074,476.656067 3539.839844,475.951965 3524.448975,467.716217 
	C3514.067139,462.160889 3508.610107,453.149902 3508.000000,440.844177 
z"/>
<path fill="#FFFFFF" opacity="1.000000" stroke="none" 
	d="
M2866.796143,461.699188 
	C2857.936768,471.079163 2846.822021,474.346893 2834.830566,474.925201 
	C2821.656738,475.560547 2808.719238,474.538666 2796.602051,468.279449 
	C2782.271240,460.876526 2777.804199,448.648590 2779.056885,433.625488 
	C2780.165039,420.339203 2788.293945,411.776245 2800.316406,408.302704 
	C2811.788574,404.988342 2823.869141,403.132141 2835.802490,402.232544 
	C2849.213135,401.221527 2862.758301,402.000000 2877.059326,402.000000 
	C2876.131348,422.362854 2880.533936,443.286011 2866.796143,461.699188 
z"/>
</svg>